Coordinates
version=1
nRows=26
nColumns=30
inDegrees=yes

Units are S.I. units (second, meters, Newtons, ...)
Angles are in degrees.

endheader
time	floatyaw	floatroll	floatpitch	floatx	floaty	floatz	pro_sup_l	deviation_l	flexion_l	cmc_flexion_l	cmc_abduction_l	mp_flexion_l	ip_flexion_l	2mcp_flexion_l	2mcp_abduction_l	2pm_flexion_l	2md_flexion_l	3mcp_flexion_l	3mcp_abduction_l	3pm_flexion_l	3md_flexion_l	4mcp_flexion_l	4mcp_abduction_l	4pm_flexion_l	4md_flexion_l	5mcp_flexion_l	5mcp_abduction_l	5pm_flexion_l	5md_flexion_l
-0.495000	-160.147433	-5.066637	-73.570646	0.080005	-0.182410	-0.014380	99.751957	3.678337	-0.593511	13.774665	6.738906	-26.225697	-41.880559	32.134377	6.711065	42.550679	28.959357	24.794563	4.156165	44.886572	29.622853	13.289673	-4.313306	52.852117	36.673417	1.076796	-7.744801	63.028938	43.112440
-0.485000	-160.147433	-5.066637	-73.570646	0.079998	-0.182391	-0.014410	99.749521	3.663422	-0.575742	13.758478	6.734141	-26.236397	-41.874424	32.111406	6.718261	42.571012	28.973919	24.782138	4.154689	44.895817	29.628775	13.268055	-4.315623	52.874699	36.683381	1.050870	-7.740930	63.043205	43.126571
-0.475000	-160.147433	-5.066637	-73.570646	0.079988	-0.182369	-0.014450	99.743442	3.649284	-0.558983	13.735183	6.730350	-26.243083	-41.869463	32.092176	6.725491	42.586377	28.983227	24.773670	4.152558	44.907571	29.635321	13.249337	-4.318444	52.899652	36.695881	1.029170	-7.735095	63.050949	43.133913
-0.465000	-160.147433	-5.066637	-73.570646	0.079973	-0.182345	-0.014498	99.729391	3.638325	-0.545092	13.704200	6.732164	-26.248011	-41.869273	32.083014	6.730657	42.595497	28.986290	24.769741	4.150224	44.920844	29.641565	13.237108	-4.320538	52.922202	36.707846	1.014329	-7.728632	63.053846	43.135422
-0.455000	-160.147433	-5.066637	-73.570646	0.079954	-0.182319	-0.014554	99.705050	3.632343	-0.534851	13.666492	6.742834	-26.253713	-41.876346	32.087702	6.732180	42.599446	28.984074	24.770346	4.147842	44.933956	29.646032	13.233705	-4.320949	52.938500	36.716039	1.007630	-7.722784	63.055762	43.133924
-0.445000	-160.147433	-5.066637	-73.570646	0.079927	-0.182290	-0.014618	99.671003	3.631953	-0.527379	13.623474	6.762338	-26.261605	-41.890232	32.105387	6.729847	42.600069	28.978367	24.774603	4.145125	44.945449	29.647670	13.239269	-4.319325	52.946330	36.718226	1.008630	-7.718088	63.059879	43.132340
-0.435000	-160.147433	-5.066637	-73.570646	0.079892	-0.182255	-0.014692	99.630001	3.636355	-0.520312	13.575695	6.786720	-26.271034	-41.906421	32.130200	6.725143	42.598641	28.970926	24.780465	4.141588	44.954993	29.646883	13.251629	-4.315960	52.945047	36.713854	1.015381	-7.714157	63.066019	43.132044
-0.425000	-160.147433	-5.066637	-73.570646	0.079848	-0.182210	-0.014777	99.585370	3.643602	-0.510763	13.522163	6.809457	-26.279440	-41.916914	32.153185	6.720830	42.595870	28.963442	24.784969	4.136914	44.963643	29.645785	13.267134	-4.311598	52.935121	36.704034	1.025452	-7.709856	63.069603	43.132030
-0.415000	-160.147433	-5.066637	-73.570646	0.079794	-0.182154	-0.014875	99.539875	3.651259	-0.496585	13.461094	6.824423	-26.283768	-41.913123	32.166090	6.719858	42.592824	28.957783	24.785224	4.131180	44.973048	29.647216	13.282015	-4.307149	52.917725	36.690906	1.037202	-7.703735	63.062957	43.129195
-0.405000	-160.147433	-5.066637	-73.570646	0.079731	-0.182087	-0.014985	99.495804	3.656987	-0.477321	13.392117	6.828804	-26.282675	-41.890660	32.165387	6.724077	42.591564	28.955714	24.779665	4.124806	44.984003	29.652845	13.293655	-4.303410	52.894446	36.676695	1.050346	-7.694756	63.038803	43.119745
-0.395000	-160.147433	-5.066637	-73.570646	0.079661	-0.182009	-0.015108	99.455854	3.658522	-0.454318	13.318772	6.824400	-26.278515	-41.853962	32.154233	6.733449	42.594839	28.958009	24.768888	4.118343	44.995360	29.661568	13.301330	-4.300838	52.866981	36.662813	1.065408	-7.683272	62.994731	43.101337
-0.385000	-160.147433	-5.066637	-73.570646	0.079586	-0.181920	-0.015249	99.423607	3.653169	-0.429703	13.249235	6.816697	-26.277987	-41.817797	32.140948	6.746233	42.605161	28.963741	24.755610	4.112301	45.004323	29.669472	13.306338	-4.299444	52.836730	36.649443	1.082676	-7.671846	62.936350	43.075019
-0.375000	-160.147433	-5.066637	-73.570646	0.079506	-0.181820	-0.015414	99.402606	3.637678	-0.404345	13.193713	6.812248	-26.290746	-41.803678	32.134558	6.760039	42.623932	28.970547	24.743836	4.107174	45.008263	29.671787	13.311710	-4.298964	52.804683	36.635953	1.101711	-7.665214	62.876828	43.045764
-0.365000	-160.147433	-5.066637	-73.570646	0.079419	-0.181701	-0.015619	99.394063	3.609359	-0.375594	13.158829	6.815403	-26.326257	-41.832083	32.139818	6.773076	42.651099	28.975969	24.737817	4.103644	45.006915	29.665727	13.321642	-4.299328	52.772219	36.622102	1.121898	-7.668867	62.832077	43.020898
-0.355000	-160.147433	-5.066637	-73.570646	0.079316	-0.181550	-0.015885	99.394405	3.568321	-0.336156	13.141849	6.825485	-26.390123	-41.914024	32.154461	6.784748	42.685800	28.979273	24.741608	4.102687	45.003125	29.652180	13.340857	-4.301172	52.742677	36.609310	1.143631	-7.686494	62.813621	43.006886
-0.345000	-160.147433	-5.066637	-73.570646	0.079186	-0.181347	-0.016232	99.394187	3.519530	-0.275294	13.128657	6.835306	-26.481232	-42.045871	32.169981	6.795227	42.728203	28.982911	24.759560	4.105309	45.001154	29.634837	13.374384	-4.305806	52.722153	36.600759	1.169560	-7.717479	62.823130	43.006075
-0.335000	-160.147433	-5.066637	-73.570646	0.079014	-0.181073	-0.016682	99.378896	3.473222	-0.182606	13.097601	6.831861	-26.590663	-42.209183	32.175373	6.804410	42.781724	28.992766	24.797164	4.111839	45.003523	29.617350	13.428348	-4.314266	52.717313	36.599445	1.205579	-7.756139	62.852082	43.015181
-0.325000	-160.147433	-5.066637	-73.570646	0.078789	-0.180714	-0.017251	99.330607	3.443135	-0.053142	13.027557	6.799926	-26.702947	-42.374952	32.161782	6.811037	42.853776	29.016628	24.860977	4.121039	45.009010	29.600894	13.511634	-4.325743	52.729668	36.604726	1.261405	-7.793592	62.886618	43.026147
-0.315000	-160.147433	-5.066637	-73.570646	0.078494	-0.180260	-0.017954	99.228915	3.443576	0.108380	12.905929	6.728766	-26.800170	-42.510877	32.125736	6.812514	42.953462	29.061093	24.956720	4.129628	45.013968	29.584369	13.637123	-4.336496	52.749107	36.609561	1.350419	-7.821355	62.913861	43.028344
-0.305000	-160.147433	-5.066637	-73.570646	0.078110	-0.179706	-0.018810	99.050722	3.487082	0.286408	12.732904	6.620277	-26.868376	-42.590304	32.069582	6.805558	43.086692	29.128161	25.086114	4.132872	45.016572	29.567336	13.820810	-4.340504	52.751930	36.601137	1.488426	-7.834390	62.925099	43.010613
-0.295000	-160.147433	-5.066637	-73.570646	0.077605	-0.179041	-0.019848	98.770422	3.583841	0.457076	12.521144	6.494276	-26.903566	-42.600712	31.999500	6.787558	43.251326	29.213305	25.244544	4.126423	45.020996	29.553346	14.078294	-4.332147	52.707242	36.565982	1.691310	-7.831809	62.914593	42.962828
-0.285000	-160.147433	-5.066637	-73.570646	0.076937	-0.178245	-0.021107	98.362732	3.742852	0.593227	12.292172	6.385601	-26.913568	-42.548544	31.922875	6.758408	43.435318	29.306167	25.421542	4.108674	45.038359	29.550877	14.419883	-4.309566	52.590488	36.497664	1.971792	-7.815275	62.877010	42.878100
-0.275000	-160.147433	-5.066637	-73.570646	0.076055	-0.177285	-0.022627	97.808626	3.973760	0.669947	12.070834	6.330426	-26.914387	-42.458212	31.846476	6.722145	43.619198	29.393751	25.604011	4.082070	45.083666	29.570932	14.846183	-4.276269	52.397203	36.402720	2.335608	-7.786885	62.807338	42.756447
-0.265000	-160.147433	-5.066637	-73.570646	0.074910	-0.176123	-0.024438	97.101389	4.287794	0.669335	11.878418	6.345068	-26.923903	-42.366368	31.775050	6.687247	43.782136	29.464899	25.779444	4.052136	45.170817	29.622962	15.345788	-4.239297	52.148002	36.300584	2.777677	-7.748552	62.703785	42.608615
-0.255000	-160.147433	-5.066637	-73.570646	0.073458	-0.174725	-0.026549	96.247530	4.696168	0.583945	11.725133	6.406230	-26.957523	-42.314999	31.708881	6.664573	43.909369	29.514539	25.935941	4.024479	45.308397	29.711809	15.896315	-4.204800	51.879430	36.216252	3.279541	-7.703632	62.570340	42.456934
-0.245000	-160.147433	-5.066637	-73.570646	0.071659	-0.173070	-0.028947	95.258820	5.205194	0.418262	11.603767	6.443410	-27.027615	-42.345592	31.640392	6.662889	43.997666	29.545903	26.059057	4.001686	45.496656	29.836647	16.469499	-4.174065	51.623052	36.168546	3.809925	-7.659483	62.414869	42.330485
